<svg width="139" height="30" viewBox="0 0 139 30" fill="none" xmlns="http://www.w3.org/2000/svg">
<path d="M6.54297 22.6328L3.26172 29.0391H0.976562L15.7031 0.191406L30.4688 29.0391H28.2617L24.9609 22.6328H6.54297ZM23.9062 20.582L15.7031 4.68359L7.57812 20.582H23.9062ZM35.4297 26.9883H44.3945C45.8919 26.9753 47.3372 26.6237 48.7305 25.9336C51.4648 24.5664 52.832 22.2227 52.832 18.9023C52.832 14.6706 50.7487 11.6497 46.582 9.83984C48.0664 9.11068 48.8151 7.8151 48.8281 5.95312C48.8281 4.78125 48.2552 3.95443 47.1094 3.47266C46.4844 3.21224 45.8138 3.08203 45.0977 3.08203H35.4297V26.9883ZM49.7852 9.78125C53.2227 11.7344 54.9414 14.7747 54.9414 18.9023C54.9414 23.069 53.1966 25.9987 49.707 27.6914C47.9102 28.5638 46.1393 29 44.3945 29H33.3984V0.972656H45.0977C46.4648 0.972656 47.6888 1.3112 48.7695 1.98828C50.2279 2.8737 50.957 4.19531 50.957 5.95312C50.957 7.61979 50.5664 8.89583 49.7852 9.78125ZM71.2891 27.3008C74.7005 27.3008 77.6172 26.0964 80.0391 23.6875C82.4479 21.2656 83.6523 18.349 83.6523 14.9375C83.6523 11.526 82.4479 8.60938 80.0391 6.1875C77.6172 3.77865 74.7005 2.57422 71.2891 2.57422C67.8776 2.57422 64.9609 3.77865 62.5391 6.1875C60.1302 8.60938 58.9258 11.526 58.9258 14.9375C58.9258 18.349 60.1302 21.2656 62.5391 23.6875C64.9609 26.0964 67.8776 27.3008 71.2891 27.3008ZM71.3086 0.542969C75.2799 0.542969 78.6719 1.94922 81.4844 4.76172C84.2969 7.57422 85.6966 10.9661 85.6836 14.9375C85.6836 18.9089 84.2773 22.3008 81.4648 25.1133C78.6523 27.9258 75.2604 29.332 71.2891 29.332C67.3177 29.332 63.9258 27.9258 61.1133 25.1133C58.3008 22.3008 56.8945 18.9089 56.8945 14.9375C56.9076 10.9661 58.3203 7.57422 61.1328 4.76172C63.9453 1.94922 67.3372 0.542969 71.3086 0.542969ZM114.492 14.918C114.44 18.8763 113.171 22.2552 110.684 25.0547C108.197 27.8542 105.208 29.2539 101.719 29.2539C98.2161 29.2539 95.2214 27.8477 92.7344 25.0352C90.2474 22.2357 88.9844 18.8503 88.9453 14.8789V0.933594H90.918V14.8789C90.957 18.2383 92.0247 21.1029 94.1211 23.4727C96.2174 25.8424 98.7435 27.0273 101.699 27.0273C104.655 27.0273 107.188 25.849 109.297 23.4922C111.393 21.1354 112.467 18.2839 112.52 14.9375V0.933594H114.492V14.918ZM138.496 3.04297H128.965V29H126.914V3.04297H117.422V0.992188H138.496V3.04297Z" fill="black"/>
</svg>
