<svg width="242" height="30" viewBox="0 0 242 30" fill="none" xmlns="http://www.w3.org/2000/svg">
<path d="M14.6641 27.3203C18.0755 27.3203 20.9922 26.1159 23.4141 23.707C24.8464 22.2747 25.8555 20.6471 26.4414 18.8242H28.5508C27.9128 21.194 26.6758 23.2969 24.8398 25.1328C22.0273 27.9453 18.6354 29.3516 14.6641 29.3516C10.7057 29.3516 7.3138 27.9453 4.48828 25.1328C1.67578 22.3073 0.269531 18.9154 0.269531 14.957C0.282552 10.9727 1.70182 7.58073 4.52734 4.78125C7.3138 1.96875 10.6992 0.5625 14.6836 0.5625C18.668 0.5625 22.0599 1.96875 24.8594 4.78125C26.6953 6.60417 27.9323 8.70703 28.5703 11.0898H26.4414C25.8555 9.27995 24.8464 7.65234 23.4141 6.20703C20.9922 3.79818 18.0755 2.59375 14.6641 2.59375C11.2396 2.59375 8.32292 3.79818 5.91406 6.20703C3.50521 8.62891 2.30078 11.5456 2.30078 14.957C2.30078 18.3685 3.50521 21.2852 5.91406 23.707C8.33594 26.1159 11.2526 27.3203 14.6641 27.3203ZM34.4492 22.6328L31.168 29.0391H28.8828L43.6094 0.191406L58.375 29.0391H56.168L52.8672 22.6328H34.4492ZM51.8125 20.582L43.6094 4.68359L35.4844 20.582H51.8125ZM76.7148 3.04297H67.1836V29H65.1328V3.04297H55.6406V0.992188H76.7148V3.04297ZM79.5664 22.6328L76.2852 29.0391H74L88.7266 0.191406L103.492 29.0391H101.285L97.9844 22.6328H79.5664ZM96.9297 20.582L88.7266 4.68359L80.6016 20.582H96.9297ZM125.777 26.9492V29H106.422V0.972656H108.473V26.9492H125.777ZM141.852 27.3008C145.263 27.3008 148.18 26.0964 150.602 23.6875C153.01 21.2656 154.215 18.349 154.215 14.9375C154.215 11.526 153.01 8.60938 150.602 6.1875C148.18 3.77865 145.263 2.57422 141.852 2.57422C138.44 2.57422 135.523 3.77865 133.102 6.1875C130.693 8.60938 129.488 11.526 129.488 14.9375C129.488 18.349 130.693 21.2656 133.102 23.6875C135.523 26.0964 138.44 27.3008 141.852 27.3008ZM141.871 0.542969C145.842 0.542969 149.234 1.94922 152.047 4.76172C154.859 7.57422 156.259 10.9661 156.246 14.9375C156.246 18.9089 154.84 22.3008 152.027 25.1133C149.215 27.9258 145.823 29.332 141.852 29.332C137.88 29.332 134.488 27.9258 131.676 25.1133C128.863 22.3008 127.457 18.9089 127.457 14.9375C127.47 10.9661 128.883 7.57422 131.695 4.76172C134.508 1.94922 137.9 0.542969 141.871 0.542969ZM190.191 20.8164H186.402C185.699 22.3919 184.697 23.8307 183.395 25.1328C180.582 27.9453 177.19 29.3516 173.219 29.3516C169.26 29.3516 165.868 27.9453 163.043 25.1328C160.23 22.3073 158.824 18.9154 158.824 14.957C158.837 10.9727 160.257 7.58073 163.082 4.78125C165.868 1.96875 169.254 0.5625 173.238 0.5625C177.223 0.5625 180.615 1.96875 183.414 4.78125C185.25 6.60417 186.487 8.70703 187.125 11.0898H184.996C184.41 9.27995 183.401 7.65234 181.969 6.20703C179.547 3.79818 176.63 2.59375 173.219 2.59375C169.794 2.59375 166.878 3.79818 164.469 6.20703C162.06 8.62891 160.855 11.5456 160.855 14.957C160.855 18.3685 162.06 21.2852 164.469 23.707C166.891 26.1159 169.807 27.3203 173.219 27.3203C176.63 27.3203 179.547 26.1159 181.969 23.707C183.401 22.2747 184.41 20.6471 184.996 18.8242H185.055V18.7656H190.191V20.8164ZM217.711 14.918C217.659 18.8763 216.389 22.2552 213.902 25.0547C211.415 27.8542 208.427 29.2539 204.938 29.2539C201.435 29.2539 198.44 27.8477 195.953 25.0352C193.466 22.2357 192.203 18.8503 192.164 14.8789V0.933594H194.137V14.8789C194.176 18.2383 195.243 21.1029 197.34 23.4727C199.436 25.8424 201.962 27.0273 204.918 27.0273C207.874 27.0273 210.406 25.849 212.516 23.4922C214.612 21.1354 215.686 18.2839 215.738 14.9375V0.933594H217.711V14.918ZM223.668 14.0391H240.992V16.0898H223.668V26.9297H241.07V29H221.617V0.972656H241.07V3.0625H223.668V14.0391Z" fill="black"/>
</svg>
